<svg xmlns="http://www.w3.org/2000/svg" viewBox="0 0 33 28" width="33" height="28">
	<style>
		tspan { white-space:pre }
		.shp0 { fill: #ffffff } 
	</style>
	<g id="Скачать релиз">
		<path id="Shape 1" class="shp0" d="M32.19,19.54c-0.45,0 -1.19,0.03 -1.19,0.46v3c0,1.72 -1.2,3 -3,3h-22c-1.8,0 -3,-1.28 -3,-3v-3c0,-0.43 -0.74,-0.46 -1.19,-0.46c-0.45,0 -0.81,0.35 -0.81,0.78v2.99c0,2.59 2.19,4.69 4.89,4.69h22.22c2.7,0 4.89,-2.11 4.89,-4.69v-2.99c0,-0.43 -0.36,-0.78 -0.81,-0.78zM27,23h-20c-0.45,0 -1.05,-0.03 -1.05,0.4c0,0.43 0.6,0.6 1.05,0.6h20c0.45,0 1.05,-0.17 1.05,-0.6c0,-0.43 -0.6,-0.4 -1.05,-0.4zM25.24,11.62c-0.3,-0.32 -0.81,-0.35 -1.15,-0.06l-6.09,5.45v-15c0,-0.43 -0.55,-1 -1,-1c-0.45,0 -1,0.57 -1,1v15l-6.09,-5.45c-0.34,-0.29 -0.85,-0.26 -1.15,0.06c-0.3,0.32 -0.27,0.82 0.06,1.1l6.82,5.85c0.39,0.33 0.87,0.5 1.36,0.5c0.48,0 0.97,-0.17 1.36,-0.5l6.82,-5.85c0.34,-0.29 0.36,-0.78 0.06,-1.1z" />
	</g>
</svg>