<svg xmlns="http://www.w3.org/2000/svg" viewBox="0 0 10 18" width="10" height="18">
	<style>
		tspan { white-space:pre }
		.shp0 { fill: #2e3848 } 
	</style>
	<g id="Поделиться">
		<g id="facebook">
			<path id="Shape 1" class="shp0" d="M1.29,10.05h1.95v7.67c0,0.15 0.13,0.27 0.29,0.27h3.31c0.16,0 0.29,-0.12 0.29,-0.27v-7.64h2.24c0.15,0 0.27,-0.1 0.29,-0.24l0.34,-2.82c0.01,-0.08 -0.02,-0.16 -0.07,-0.21c-0.05,-0.06 -0.13,-0.09 -0.21,-0.09h-2.59v-1.77c0,-0.53 0.3,-0.8 0.9,-0.8c0.08,0 1.69,0 1.69,0c0.16,0 0.29,-0.12 0.29,-0.27v-2.59c0,-0.15 -0.13,-0.27 -0.29,-0.27h-2.33c-0.02,0 -0.05,0 -0.11,0c-0.4,0 -1.81,0.08 -2.92,1.05c-1.23,1.08 -1.06,2.37 -1.02,2.6v2.07h-2.05c-0.16,0 -0.29,0.12 -0.29,0.27v2.79c0,0.15 0.13,0.27 0.29,0.27z" />
		</g>
	</g>
</svg>