<svg xmlns="http://www.w3.org/2000/svg" viewBox="0 0 38 41" width="38" height="41">
	<style>
		tspan { white-space:pre }
		.shp0 { fill: #2e3848 } 
	</style>
	<g id="Скачать релиз">
		<path id="Shape 1" class="shp0" d="M37.79 11.82L27.79 1.24C27.64 1.09 27.45 1 27.24 1L12.33 1C10.66 1 9.31 2.38 9.31 4.08L9.31 14.85L3.26 14.85C2.02 14.85 1 15.88 1 17.15L1 28.69C1 29.97 2.02 31 3.26 31L9.31 31L9.31 37.92C9.31 39.62 10.66 41 12.33 41L34.97 41C36.64 41 38 39.62 38 37.93L38 12.36C38 12.16 37.92 11.97 37.79 11.82ZM27.43 3.08L35.64 11.77L27.43 11.77L27.43 3.08ZM3.26 29.46C2.85 29.46 2.51 29.12 2.51 28.69L2.51 17.15C2.51 16.73 2.85 16.38 3.26 16.38L23.65 16.38C24.07 16.38 24.41 16.73 24.41 17.15L24.41 28.69C24.41 29.12 24.07 29.46 23.65 29.46L3.26 29.46ZM36.49 37.93C36.49 38.77 35.81 39.46 34.97 39.46L12.33 39.46C11.5 39.46 10.82 38.77 10.82 37.92L10.82 31L23.65 31C24.9 31 25.92 29.97 25.92 28.69L25.92 17.15C25.92 15.88 24.9 14.85 23.65 14.85L10.82 14.85L10.82 4.08C10.82 3.23 11.5 2.54 12.33 2.54L25.92 2.54L25.92 12.54C25.92 12.96 26.26 13.31 26.67 13.31L36.49 13.31L36.49 37.93L36.49 37.93ZM10.03 20.52C9.78 20.19 9.47 19.98 9.09 19.88C8.85 19.81 8.33 19.78 7.54 19.78L5.43 19.78L5.43 26.38L6.74 26.38L6.74 23.89L7.6 23.89C8.19 23.89 8.64 23.86 8.96 23.8C9.19 23.75 9.41 23.64 9.64 23.48C9.86 23.33 10.04 23.11 10.19 22.83C10.33 22.56 10.4 22.22 10.4 21.81C10.4 21.28 10.28 20.85 10.03 20.52ZM8.91 22.34C8.81 22.49 8.67 22.6 8.5 22.67C8.32 22.74 7.98 22.77 7.46 22.77L6.74 22.77L6.74 20.89L7.38 20.89C7.85 20.89 8.16 20.91 8.32 20.94C8.53 20.98 8.71 21.08 8.85 21.23C8.98 21.39 9.05 21.59 9.05 21.83C9.05 22.02 9 22.19 8.91 22.34ZM16.7 21.58C16.56 21.16 16.35 20.8 16.08 20.51C15.81 20.22 15.48 20.02 15.1 19.9C14.82 19.82 14.41 19.78 13.87 19.78L11.47 19.78L11.47 26.38L13.94 26.38C14.42 26.38 14.81 26.34 15.1 26.24C15.48 26.12 15.79 25.94 16.02 25.72C16.32 25.42 16.55 25.03 16.71 24.55C16.85 24.16 16.91 23.69 16.91 23.14C16.91 22.52 16.84 22 16.7 21.58ZM15.43 24.3C15.34 24.59 15.22 24.8 15.08 24.93C14.94 25.06 14.77 25.15 14.55 25.21C14.39 25.25 14.13 25.27 13.76 25.27L12.78 25.27L12.78 25.27L12.78 20.89L13.37 20.89C13.91 20.89 14.26 20.92 14.45 20.96C14.69 21.01 14.89 21.12 15.05 21.27C15.21 21.42 15.34 21.64 15.43 21.91C15.51 22.18 15.56 22.57 15.56 23.09C15.56 23.6 15.51 24 15.43 24.3ZM22.48 20.89L22.48 19.78L18.03 19.78L18.03 26.38L19.34 26.38L19.34 23.58L22.05 23.58L22.05 22.46L19.34 22.46L19.34 20.89L22.48 20.89Z" />
	</g>
</svg>