<svg xmlns="http://www.w3.org/2000/svg" viewBox="0 0 19 20" width="19" height="20">
	<style>
		tspan { white-space:pre }
		.shp0 { fill: #2e3848 } 
	</style>
	<g id="Поделиться">
		<g id="share">
			<path id="Shape 1" class="shp0" d="M14.66,12.51c-1.1,0 -2.07,0.52 -2.7,1.33l-5.24,-2.93c0.12,-0.35 0.19,-0.73 0.19,-1.12c0,-0.4 -0.07,-0.77 -0.19,-1.13l5.23,-2.92c0.62,0.81 1.6,1.34 2.7,1.34c1.88,0 3.41,-1.53 3.41,-3.41c0,-1.88 -1.53,-3.41 -3.41,-3.41c-1.88,0 -3.41,1.53 -3.41,3.41c0,0.4 0.07,0.78 0.19,1.13l-5.23,2.92c-0.62,-0.82 -1.6,-1.34 -2.7,-1.34c-1.88,0 -3.41,1.53 -3.41,3.41c0,1.88 1.53,3.41 3.41,3.41c1.1,0 2.08,-0.53 2.71,-1.34l5.23,2.93c-0.13,0.36 -0.2,0.74 -0.2,1.14c0,1.88 1.53,3.41 3.41,3.41c1.88,0 3.41,-1.53 3.41,-3.41c0,-1.88 -1.53,-3.41 -3.41,-3.41z" />
		</g>
	</g>
</svg>