<svg xmlns="http://www.w3.org/2000/svg" viewBox="0 0 19 16" width="19" height="16">
	<style>
		tspan { white-space:pre }
		.shp0 { fill: #2e3848 } 
	</style>
	<g id="Поделиться">
		<g id="twitter">
			<path id="Shape 1" class="shp0" d="M18.57,2.73c-0.28,0.13 -0.57,0.24 -0.87,0.32c0.35,-0.4 0.62,-0.88 0.78,-1.4c0.04,-0.12 0,-0.24 -0.1,-0.32c-0.09,-0.08 -0.22,-0.09 -0.33,-0.02c-0.63,0.38 -1.31,0.65 -2.02,0.81c-0.72,-0.71 -1.69,-1.12 -2.7,-1.12c-2.13,0 -3.86,1.76 -3.86,3.93c0,0.17 0.01,0.34 0.03,0.51c-2.64,-0.24 -5.1,-1.56 -6.78,-3.67c-0.06,-0.08 -0.15,-0.12 -0.25,-0.11c-0.09,0.01 -0.18,0.06 -0.23,0.15c-0.34,0.6 -0.52,1.28 -0.52,1.98c0,0.95 0.33,1.85 0.92,2.55c-0.18,-0.06 -0.35,-0.14 -0.52,-0.24c-0.09,-0.05 -0.2,-0.05 -0.28,0c-0.09,0.05 -0.14,0.15 -0.15,0.25c0,0.02 0,0.03 0,0.05c0,1.41 0.75,2.69 1.89,3.38c-0.1,-0.01 -0.2,-0.02 -0.29,-0.04c-0.1,-0.02 -0.2,0.02 -0.27,0.09c-0.07,0.08 -0.09,0.19 -0.06,0.29c0.42,1.35 1.51,2.33 2.83,2.64c-1.09,0.7 -2.34,1.06 -3.65,1.06c-0.27,0 -0.55,-0.02 -0.82,-0.05c-0.13,-0.02 -0.26,0.06 -0.31,0.19c-0.05,0.13 0,0.27 0.12,0.35c1.68,1.1 3.63,1.68 5.63,1.68c3.93,0 6.39,-1.89 7.76,-3.47c1.71,-1.98 2.69,-4.59 2.69,-7.17c0,-0.11 0,-0.22 0,-0.33c0.67,-0.52 1.25,-1.14 1.73,-1.86c0.07,-0.11 0.06,-0.25 -0.02,-0.35c-0.08,-0.1 -0.22,-0.13 -0.34,-0.08z" />
		</g>
	</g>
</svg>