<svg xmlns="http://www.w3.org/2000/svg" viewBox="0 0 19 18" width="19" height="18">
	<style>
		tspan { white-space:pre }
		.shp0 { fill: #2e3848 } 
	</style>
	<g id="Поделиться">
		<g id="telegram">
			<path id="Shape 1" class="shp0" d="M0.32 8.67L4.47 10.25L6.07 15.52C6.17 15.86 6.58 15.99 6.85 15.76L9.16 13.84C9.4 13.64 9.75 13.63 10 13.81L14.17 16.9C14.46 17.12 14.86 16.96 14.93 16.6L17.99 1.6C18.07 1.21 17.7 0.89 17.33 1.03L0.31 7.74C-0.11 7.9 -0.1 8.51 0.32 8.67ZM5.81 9.41L13.92 4.31C14.06 4.22 14.21 4.42 14.09 4.54L7.4 10.89C7.16 11.11 7.01 11.41 6.97 11.74L6.74 13.46C6.71 13.69 6.39 13.72 6.33 13.49L5.46 10.35C5.36 9.99 5.5 9.61 5.81 9.41Z" />
		</g>
	</g>
</svg>