<svg 
 xmlns="http://www.w3.org/2000/svg"
 xmlns:xlink="http://www.w3.org/1999/xlink"
 width="98px" height="98px">
<path fill-rule="evenodd"  fill="rgb(213, 219, 56)"
 d="M97.224,78.675 C96.891,78.922 96.491,79.050 96.086,79.050 C95.898,79.050 95.709,79.023 95.526,78.967 L68.956,70.838 L54.831,84.643 C54.466,84.999 53.983,85.188 53.493,85.188 C53.242,85.188 52.990,85.139 52.750,85.038 C52.367,84.877 52.060,84.598 51.855,84.256 C51.841,84.238 51.828,84.219 51.815,84.196 L39.531,61.837 L11.686,53.318 C10.961,53.096 10.435,52.467 10.345,51.714 C10.255,50.961 10.619,50.226 11.272,49.840 L45.435,29.639 C46.345,29.101 47.519,29.403 48.057,30.312 C48.595,31.222 48.294,32.396 47.384,32.934 L16.955,50.927 L40.271,58.060 L87.150,9.420 L61.982,24.302 C61.072,24.840 59.898,24.539 59.360,23.629 C58.822,22.719 59.124,21.545 60.034,21.007 L95.111,0.265 C95.703,-0.084 96.437,-0.090 97.034,0.250 C97.631,0.591 98.000,1.226 98.000,1.913 L98.000,77.136 C98.000,77.743 97.712,78.314 97.224,78.675 ZM55.407,78.727 L64.785,69.562 L55.407,66.694 L55.407,78.727 ZM43.191,60.547 L51.579,75.815 L51.579,64.106 C51.579,63.717 51.698,63.336 51.920,63.016 L80.310,22.034 L43.191,60.547 ZM94.172,8.747 L56.559,63.042 L94.172,74.549 L94.172,8.747 ZM52.908,29.357 C52.405,29.357 51.911,29.154 51.555,28.796 C51.199,28.440 50.994,27.948 50.994,27.445 C50.994,26.940 51.199,26.446 51.555,26.090 C51.911,25.734 52.405,25.529 52.908,25.529 C53.412,25.529 53.906,25.734 54.262,26.090 C54.618,26.446 54.822,26.940 54.822,27.445 C54.822,27.948 54.617,28.440 54.262,28.796 C53.906,29.154 53.412,29.357 52.908,29.357 ZM28.761,66.528 C29.509,65.781 30.721,65.781 31.468,66.528 C32.216,67.276 32.216,68.488 31.468,69.235 L13.599,87.103 C13.226,87.477 12.736,87.664 12.246,87.664 C11.756,87.664 11.266,87.477 10.892,87.103 C10.145,86.356 10.145,85.144 10.892,84.396 L28.761,66.528 ZM3.263,97.439 C2.889,97.813 2.399,98.000 1.910,98.000 C1.420,98.000 0.930,97.813 0.556,97.440 C-0.191,96.692 -0.191,95.480 0.556,94.732 L4.959,90.330 C5.706,89.583 6.918,89.583 7.666,90.330 C8.413,91.077 8.413,92.289 7.666,93.037 L3.263,97.439 ZM25.947,94.059 C26.451,94.059 26.945,94.264 27.301,94.620 C27.657,94.976 27.862,95.467 27.862,95.973 C27.862,96.476 27.657,96.970 27.301,97.326 C26.945,97.682 26.451,97.887 25.947,97.887 C25.444,97.887 24.950,97.682 24.594,97.326 C24.238,96.970 24.033,96.476 24.033,95.973 C24.033,95.467 24.238,94.976 24.594,94.620 C24.950,94.264 25.442,94.059 25.947,94.059 ZM38.835,80.378 C39.583,79.630 40.795,79.630 41.542,80.378 C42.290,81.125 42.290,82.337 41.542,83.085 L32.078,92.549 C31.704,92.923 31.214,93.110 30.724,93.110 C30.234,93.110 29.744,92.923 29.371,92.549 C28.623,91.802 28.623,90.590 29.371,89.842 L38.835,80.378 ZM71.501,79.651 C72.248,78.904 73.460,78.904 74.208,79.651 C74.955,80.399 74.955,81.611 74.208,82.359 L64.717,91.848 C64.344,92.222 63.854,92.409 63.364,92.409 C62.874,92.409 62.384,92.222 62.010,91.848 C61.263,91.101 61.263,89.889 62.010,89.141 L71.501,79.651 Z"/>
</svg>