<svg xmlns="http://www.w3.org/2000/svg" viewBox="0 0 826.66 274.89"><title>vesch_logo</title><g id="Layer_2" data-name="Layer 2"><g id="Layer_1-2" data-name="Layer 1"><path d="M182.75,207a38.06,38.06,0,0,0-16.58,3.74l7.55,17.32a36.57,36.57,0,0,1,9-1.06c9.65.12,20.89,3.5,31.82,3.5s21.09-4.5,21.09-4.5a47.14,47.14,0,0,0,.53-7.34c0-35.46-26.83-53.39-55.76-53.39-28.76,0-54.77,19.31-54.77,54,0,34.47,27.45,54.57,56.58,54.57a59.85,59.85,0,0,0,36.42-12.14L210.08,242c-7,7.26-17.28,11.12-27.47,11.12-18.36,0-36.92-10.44-36.92-33.49s16.18-33.48,34.74-33.48c15.78,0,30.83,7.42,34.79,24.33h-.65C203.64,210.5,192.4,207.12,182.75,207Z" fill="#192239"/><path d="M91.14,169.15A75.85,75.85,0,0,0,78.6,191.46c-4.79,13.44-7.25,30.24-12.8,45.41a97.36,97.36,0,0,1-7.95,15.84l-35-83.09H0L44.66,272h26a143,143,0,0,0,14.41-28.07c5.56-15.17,8-32,12.81-45.41S114.66,169,114.66,169Z" fill="#192239"/><path d="M575.5,169.62V210.5a60.54,60.54,0,0,1-14.64,2c-10.93,0-22.17-3.38-31.82-3.5a36.49,36.49,0,0,0-9.09,1.08V169.62H499.86v102H520V230.08A36.49,36.49,0,0,1,529,229c9.65.12,20.89,3.5,31.82,3.5a60.54,60.54,0,0,0,14.64-2v41.16h20.09v-102Z" fill="#192239"/><path d="M435,254.33c-18.27,0-36.54-10.64-36.54-33.69s17.91-33.88,36.36-33.88a43.89,43.89,0,0,1,25.61,8.05l7.85-19.23a62.85,62.85,0,0,0-33.46-9.31c-28.6,0-56.47,19.31-56.47,54,0,34.47,27.31,54.57,56.28,54.57a59,59,0,0,0,35-11.06l-7.93-19.42A41.28,41.28,0,0,1,435,254.33Z" fill="#192239"/><path d="M306.52,207.25c-19.89.12-21.86-5.25-22.26-10.25-.55-7,8.4-11,20.69-11,11.65,0,21.71,2,31,6.61l7.3-17c-12.89-7.32-25.2-9.28-38.11-9.28C282.49,166.27,263,178.49,263,197c0,22.26,17.73,30.34,42.15,30.34,21.28,0,27.52,3.66,27.52,11.23,0,10.64-9,16.7-29.52,16.55C287.66,255,276.66,247,268.66,241l-7.85,18.18c10.94,9.68,27.5,15,42.33,15.64,29.52,1.18,49.62-11.82,49.62-36.25C352.76,222,345.66,207,306.52,207.25Z" fill="#192239"/><path d="M649.66,252a126,126,0,1,1,126-126A126.14,126.14,0,0,1,649.66,252Zm0-232a106,106,0,1,0,106,106A106.12,106.12,0,0,0,649.66,20Z" fill="#d6da35"/><polygon points="683.81 81.62 706.66 81.62 688 132 666 132 683.81 81.62" fill="#d6da35"/><path d="M619.51,81.15a75.74,75.74,0,0,1,12.55,22.31c4.78,13.44,7.25,30.24,12.8,45.41a97.36,97.36,0,0,0,7.95,15.84L664,184H640a143,143,0,0,1-14.41-28.07c-5.56-15.17-8-32-12.81-45.41S596,81,596,81Z" fill="#d6da35"/><circle cx="812.16" cy="169.5" r="14.5" fill="#d6da35"/></g></g></svg>